<?xml version="1.0" encoding="UTF-8"?>
<svg id="Capa_1" xmlns="http://www.w3.org/2000/svg" viewBox="0 0 113.39 56.69">
  <defs>
    <style>
      .cls-1 {
        fill: #e83d45;
      }

      .cls-2 {
        fill: #1d1d1b;
      }
    </style>
  </defs>
  <path class="cls-1" d="M93.7,20.76s-3.11-5.63-4-6.48c-2.35-2.19-9.73-5.24-10.08-4.84-.19.25,5.93,5.31,6.64,6.98.91,1.36,1.09,5.3,1.09,5.3,0,0-1.33,1.76-6.57,1.61-5.24-.15-8-.27-8-.27,0,0-.47.05-.15.31.18.4,8.76.03,8.69,1.65.39,1.19-7.08,4.06-7.29,4.27-.25.05-.45.55.25.35.7-.2,8.93-3.94,10.33-3.94s4.54.4,4.94.55c.4.15,1.65,1.59,2.89,2.35,1.25.76,1.62,1.08,2.32,1.74,1.38,1.54,3.17,9.43,3.17,9.43,0,0,.24.48.31-.02.12-.79,1.04-5.45.74-7.92-.06-3.99-2.91-7.76-2.91-7.76,0,0,1.25-.25,1.64-1,.67-.06,1.51-.15,1.51-.15l-1.1-.61c.12-.35-.48-1.64-1.62-1.86-1.4-.37-2.79.3-2.79.3Z"/>
  <g>
    <path class="cls-1" d="M54.5,28.07c-.3.32-.67.45-1.09.45s-.77-.15-1.04-.42c-.39-.39-.38-.83-.38-1.59s0-1.2.38-1.59c.27-.27.62-.42,1.04-.42.84,0,1.33.55,1.44,1.23h-.61c-.1-.43-.39-.69-.84-.69-.23,0-.44.09-.58.25-.19.21-.24.43-.24,1.23s.04,1.02.24,1.24c.14.15.35.24.58.24.26,0,.49-.1.65-.28.14-.17.2-.37.2-.62v-.22h-.85v-.51h1.45v.61c0,.51-.09.84-.36,1.12Z"/>
    <path class="cls-1" d="M57.94,28.48l-.84-1.67h-.75v1.67h-.6v-3.96h1.54c.75,0,1.23.48,1.23,1.16,0,.57-.34.93-.79,1.05l.91,1.75h-.7ZM57.24,25.06h-.89v1.24h.89c.4,0,.67-.23.67-.62s-.27-.62-.67-.62Z"/>
    <path class="cls-1" d="M61.72,28.09c-.27.27-.62.42-1.05.42s-.77-.15-1.04-.42c-.39-.39-.38-.83-.38-1.59s0-1.2.38-1.59c.27-.27.62-.42,1.04-.42s.77.15,1.05.42c.39.39.38.83.38,1.59s.01,1.2-.38,1.59ZM61.27,25.27c-.14-.15-.36-.25-.59-.25s-.45.09-.59.25c-.2.21-.23.43-.23,1.23s.04,1.02.23,1.23c.14.15.36.24.59.24s.45-.09.59-.24c.2-.21.23-.43.23-1.23s-.04-1.02-.23-1.23Z"/>
    <path class="cls-1" d="M64.35,28.52c-.81,0-1.42-.55-1.42-1.37v-2.63h.6v2.6c0,.53.32.86.82.86s.82-.33.82-.86v-2.6h.6v2.63c0,.82-.62,1.37-1.42,1.37Z"/>
    <path class="cls-1" d="M68.25,26.93h-.9v1.56h-.6v-3.96h1.5c.78,0,1.27.51,1.27,1.2s-.49,1.2-1.27,1.2ZM68.22,25.06h-.87v1.32h.87c.42,0,.7-.24.7-.66s-.28-.66-.7-.66Z"/>
  </g>
  <g>
    <path class="cls-2" d="M14.17,47.18v-13.22h8.71v2.3h-6.13v3.1h5.22v2.3h-5.22v3.21h6.13v2.3h-8.71Z"/>
    <path class="cls-2" d="M29.82,47.29c-1.45,0-2.64-.52-3.57-1.45-1.34-1.34-1.3-2.99-1.3-5.27s-.04-3.94,1.3-5.27c.93-.93,2.12-1.45,3.57-1.45,2.47,0,4.4,1.41,4.86,4.18h-2.62c-.26-1.06-.93-1.88-2.23-1.88-.71,0-1.28.26-1.65.69-.5.56-.65,1.19-.65,3.73s.15,3.17.65,3.73c.37.43.95.69,1.65.69,1.3,0,1.97-.82,2.23-1.88h2.62c-.46,2.77-2.41,4.18-4.86,4.18Z"/>
    <path class="cls-2" d="M44.92,45.85c-.93.93-2.06,1.45-3.56,1.45s-2.66-.52-3.58-1.45c-1.34-1.34-1.3-2.99-1.3-5.27s-.04-3.94,1.3-5.27c.93-.93,2.08-1.45,3.58-1.45s2.64.52,3.56,1.45c1.34,1.34,1.32,2.99,1.32,5.27s.02,3.94-1.32,5.27ZM43,36.86c-.37-.43-.95-.71-1.65-.71s-1.3.28-1.67.71c-.5.56-.63,1.17-.63,3.71s.13,3.16.63,3.71c.37.43.97.71,1.67.71s1.28-.28,1.65-.71c.5-.56.65-1.17.65-3.71s-.15-3.16-.65-3.71Z"/>
    <path class="cls-2" d="M53.29,47.29c-1.45,0-2.64-.52-3.57-1.45-1.34-1.34-1.3-2.99-1.3-5.27s-.04-3.94,1.3-5.27c.93-.93,2.12-1.45,3.57-1.45,2.47,0,4.4,1.41,4.86,4.18h-2.62c-.26-1.06-.93-1.88-2.23-1.88-.71,0-1.28.26-1.65.69-.5.56-.65,1.19-.65,3.73s.15,3.17.65,3.73c.37.43.95.69,1.65.69,1.3,0,1.97-.82,2.23-1.88h2.62c-.46,2.77-2.41,4.18-4.86,4.18Z"/>
    <path class="cls-2" d="M60.38,47.18v-13.22h8.71v2.3h-6.12v3.1h5.22v2.3h-5.22v3.21h6.12v2.3h-8.71Z"/>
    <path class="cls-2" d="M78.62,47.18l-2.58-5.27h-1.86v5.27h-2.58v-13.22h5.18c2.69,0,4.29,1.84,4.29,4.05,0,1.86-1.13,3.01-2.41,3.47l2.95,5.7h-2.99ZM76.62,36.26h-2.43v3.49h2.43c1.13,0,1.88-.72,1.88-1.74s-.74-1.75-1.88-1.75Z"/>
    <path class="cls-2" d="M88.8,36.26v10.92h-2.58v-10.92h-3.45v-2.3h9.49v2.3h-3.45Z"/>
  </g>
</svg>