<svg xmlns="http://www.w3.org/2000/svg" viewBox="0 0 800 800">
    <path d="M800 109.06v581.89c0 60.23-48.83 109.06-109.06 109.06H109.06C48.83 800.01 0 751.18 0 690.95V109.06C0 48.83 48.83 0 109.06 0h581.89c60.23 0 109.06 48.83 109.06 109.06ZM690.83 72.82c20.08 0 36.35 16.28 36.35 36.35v581.66c0 20.08-16.28 36.35-36.35 36.35H508.72V473.32h75.59c15.67 0 29.58-10.03 34.54-24.9L635 399.97c5.88-17.65-7.26-35.89-25.86-35.89H508.72V291.2c0-19.99 16.36-36.35 36.35-36.35H618c20.08 0 36.35-16.28 36.35-36.35v-24.94c0-11.74-7.51-22.27-18.89-25.27-47.73-12.57-90.34-12.57-90.34-12.57-91.02 0-145.64 62.78-145.64 117.31v91.05h-71.87c-20.08 0-36.35 16.28-36.35 36.35v36.52c0 20.08 16.28 36.35 36.35 36.35h71.87v253.86H109.17c-20.08 0-36.35-16.28-36.35-36.35V109.17c0-20.08 16.28-36.35 36.35-36.35h581.66Z" style="fill:#052900;fill-rule:evenodd"/>
</svg>
