<svg xmlns="http://www.w3.org/2000/svg" viewBox="0 0 800 800">
    <path d="M673.92 800h-548.1C56.37 800-.13 743.49-.13 674.05V125.94C-.13 56.5 56.37 0 125.82 0h548.1c69.45 0 125.95 56.5 125.95 125.95v548.1c0 69.45-56.5 125.95-125.95 125.95ZM125.82 70.08c-30.8 0-55.86 25.06-55.86 55.86v548.1c0 30.8 25.06 55.86 55.86 55.86h548.1c30.8 0 55.86-25.06 55.86-55.86v-548.1c0-30.8-25.06-55.86-55.86-55.86h-548.1Zm274.02 235.74c-123.38 2.11-123.36 185.64 0 187.73 123.38-2.11 123.36-185.64 0-187.73Zm243-87.22c-46.84-98.69-163.09-73.68-275.86-76.94-118.63 1.03-159.62-4.92-210.09 76.93-20.62 28.36-14.43 150.19-15.36 214.28 1.03 118.64-4.92 159.62 76.93 210.09 28.36 20.62 150.19 14.43 214.28 15.36 78.92 0 118.38 0 148.52-15.36 81.84-50.58 75.87-91.38 76.94-210.09-.94-64.32 5.1-185.62-15.36-214.28Zm-243 321.88c-185.07-3.16-185.05-278.45 0-281.59 185.07 3.16 185.04 278.45 0 281.59Zm140.79-258.12c-30.85-.53-30.84-46.41 0-46.93 30.84.53 30.84 46.41 0 46.93Z" style="fill:#052900"/>
</svg>
