<svg xmlns="http://www.w3.org/2000/svg" viewBox="0 0 800 800">
    <path d="M674.08 800.03h-548.1C56.53 800.03.03 743.53.03 674.08v-548.1C.03 56.53 56.53.03 125.98.03h548.1c69.45 0 125.95 56.5 125.95 125.95v548.1c0 69.45-56.5 125.95-125.95 125.95ZM125.98 70.12c-30.8 0-55.86 25.06-55.86 55.86v548.1c0 30.8 25.06 55.86 55.86 55.86h548.1c30.8 0 55.86-25.06 55.86-55.86v-548.1c0-30.8-25.06-55.86-55.86-55.86h-548.1Zm107.25 597.72c.23 0 .48-.25.48-.48v-369.5a.48.48 0 0 0-.48-.48H131.06c-.33.29-.67.7-.81.99v369.47h102.98Zm434.02 0c.18-.23.33-.53.33-.7V417.87c0-43.56-12.16-76.54-36.16-98.02-22.94-20.54-56.74-30.95-100.45-30.95s-70.8 9.81-92.34 31.81l-25.75 26.3V310.2c0-2.51 0-9.36-.86-12.82h-97.44c-.32.29-.64.68-.77.97V666.4c.27.45.74 1.02 1.18 1.44h101.8c.23 0 .48-.25.48-.48V469.27c0-29.55 4.94-50.65 15.54-66.41 13.29-19.74 34.94-29.75 64.38-29.75 24.71 0 42.09 6.66 53.14 20.35 9.54 11.83 13.79 27.85 13.79 51.94v221.84c.04.17.14.4.26.6h102.87ZM215.11 212.99c10.65-10.41 16.51-24.34 16.51-39.23 0-30.67-25.91-56.57-56.57-56.57s-54.21 25.91-54.21 56.57c0 15 5.67 29 15.96 39.41 10.18 10.31 23.77 15.98 38.25 15.98s29.39-5.74 40.06-16.16Z" style="fill:#052900"/>
</svg>
