<svg xmlns="http://www.w3.org/2000/svg" viewBox="0 0 800 800">
    <path d="M674.05 800h-548.1C56.5 800 0 743.5 0 674.05v-548.1C0 56.5 56.5 0 125.95 0h548.1C743.5 0 800 56.5 800 125.95v548.1C800 743.5 743.5 800 674.05 800ZM125.95 70.09c-30.8 0-55.86 25.06-55.86 55.86v548.1c0 30.8 25.06 55.86 55.86 55.86h548.1c30.8 0 55.86-25.06 55.86-55.86v-548.1c0-30.8-25.06-55.86-55.86-55.86h-548.1Zm222 396.31V321.83c51.47 24.22 91.33 47.62 138.47 72.83-38.88 21.57-87 45.75-138.47 72.14m286.9-217.07c-8.88-11.71-24.01-20.8-40.12-23.82-47.35-8.98-342.73-9.01-390.06 0-12.92 2.42-24.42 8.27-34.3 17.37-41.64 38.65-28.59 245.88-18.55 279.45 4.22 14.53 9.68 25.01 16.55 31.89 8.85 9.09 20.97 15.36 34.89 18.16 38.98 8.07 239.83 12.58 390.65 1.21 13.9-2.42 26.2-8.88 35.9-18.37 38.5-38.49 35.87-257.37 5.04-305.9" style="fill:#052900"/>
</svg>
