<svg xmlns="http://www.w3.org/2000/svg" viewBox="0 0 500 500">

    <circle cx="234" cy="250" r="234" style="fill:#090;"/>
    <path fill="#fff" d="M276.19 361.44a15.306 15.306 0 0 0-7.42-1.92H164.64c-24.16 0-39.22-13.1-39.22-36.72V174.84c0-23.62 19.59-42.77 43.75-42.77h130.59c24.16 0 43.75 19.15 43.75 42.77v221.69a1.36 1.36 0 0 1-2.02 1.19l-65.3-36.27Z"/>
    <circle fill="#009700" cx="182.05" cy="251.4" r="11.7"/>
    <circle fill="#009700" cx="216.68" cy="251.4" r="11.7"/>
    <circle fill="#009700" cx="251.32" cy="251.4" r="11.7"/>
    <circle fill="#009700" cx="285.95" cy="251.4" r="11.7"/>
    <circle cx="430" cy="91" r="68" style="fill:#f64742;"/>
    <path fill="#fff" d="M440.87 125.83h-7.9V66.7c-1.19 1.06-3.3 2.31-6.33 3.76-3.03 1.44-5.72 2.47-8.07 3.08l-2.26-6.93c3.69-.96 7.62-2.54 11.77-4.72 4.16-2.18 7.42-4.4 9.8-6.65h2.99v70.59Z"/>
</svg>
