<svg xmlns="http://www.w3.org/2000/svg" viewBox="0 0 800 800">
    <path d="M597.55 427.07h-395.1c-96.64 0-174.99 78.34-174.99 174.98v169.01c0 16.1 13.06 29.16 29.17 29.16h686.74c16.11 0 29.17-13.06 29.17-29.16V602.05c0-96.64-78.35-174.98-174.99-174.98Zm99.99 298.15H102.46V602.05c0-55.13 44.86-99.98 99.99-99.98h395.1c55.13 0 99.99 44.85 99.99 99.98v123.17ZM400 74.78c31.53 0 61.18 12.28 83.47 34.58 22.3 22.3 34.58 51.94 34.58 83.48s-12.28 61.18-34.58 83.48c-22.3 22.3-51.94 34.58-83.47 34.58s-61.18-12.28-83.48-34.58c-22.3-22.3-34.58-51.94-34.58-83.48s12.28-61.18 34.58-83.48S368.46 74.78 400 74.78m0-75c-106.62 0-193.05 86.43-193.05 193.05S293.38 385.88 400 385.88s193.05-86.43 193.05-193.05S506.62-.22 400-.22Z" style="fill:#567c50"/>
</svg>
