<svg xmlns="http://www.w3.org/2000/svg" viewBox="0 0 227.83 221.79">
    <path d="M51.67 176.27C33.36 151.92.12 115.56 5.94 88.45 10.81 65.8 45.31 19.71 65.61 5.03c20.3-14.67 56.75 8.34 80.26 10.47 28.14 2.56 54.19 15.91 72.51 40.26 18.31 24.34 4.51 68.53-1.32 95.63-4.86 22.65-35.13 25.4-55.43 40.07-20.3 14.68-36.22 26.68-59.73 24.54-28.14-2.56-31.92-15.4-50.23-39.74Z" style="fill:#e5eae4"/>
    <path d="M213.2 98.22c0 28.72 4.63 74.87-16 92.36-17.24 14.62-71.68 30.79-96.35 30.79s-39.73-37.72-56.97-52.34c-20.63-17.5-33.23-42.1-33.23-70.81S47.67 43.36 68.3 25.87c17.24-14.62 42.69 0 67.35 0s44.3-.38 61.54 14.24c20.63 17.5 16 29.4 16 58.11Z" style="fill:#b4c3b2"/>
    <path d="M142.52 118.14H91.49c-12.42 0-22.48 10.07-22.48 22.48v21.39c0 2.07 1.68 3.75 3.75 3.75h88.51c2.07 0 3.75-1.68 3.75-3.75v-21.39c0-12.42-10.07-22.48-22.48-22.48Zm12.65 37.8H78.82v-15.88c0-7.1 5.75-12.85 12.85-12.85h50.65c7.1 0 12.85 5.75 12.85 12.85v15.88Zm-38.48-83.46c4.05 0 7.86 1.58 10.73 4.44 2.87 2.87 4.44 6.67 4.44 10.73s-1.58 7.86-4.44 10.73-6.67 4.44-10.73 4.44-7.86-1.58-10.73-4.44c-2.87-2.87-4.44-6.67-4.44-10.73s1.58-7.86 4.44-10.73 6.67-4.44 10.73-4.44m0-9.63c-13.7 0-24.81 11.11-24.81 24.81s11.11 24.81 24.81 24.81 24.81-11.11 24.81-24.81-11.11-24.81-24.81-24.81Z" style="fill:#fff"/>
</svg>
