<svg xmlns="http://www.w3.org/2000/svg" viewBox="0 0 2020 2048">
  <path fill="#567c50" d="M416.99,594.39c-222.07,354.36-170.93,670.4,8.7,863.17.03-10.5,11.83-612.4-8.7-863.17ZM411.93,615.97c4.58,74.76,3.89,146.52,5.13,221.59-18.81-6.45-41.36-19.21-57.19-2.66-2.91,4.07-6.19,8-11.64,7.4-12.07.71-26.09-2.08-37.49,2.36,19.7-80.72,53.44-158.38,101.19-228.69ZM309.35,850.38c9.98,5.63,25.91.45,36.85.05,24.07-3.7,47.17,5.34,71,4.43,1.05,136.21.27,273.66-.54,409.44-35.71,2.04-60.7-9.66-92.04-24.93-40.34-125.74-45.39-261.07-15.28-388.99ZM408.07,1413.42c-27.52-41.51-50.22-85.45-68.11-130.96,25.41,2.17,51.01.77,76.6-1-.28,46.35-.53,93.01-.74,139.14-.03,1.33-.03,2.59.01,3.8-2.74-3.55-5.32-7.22-7.76-10.97Z"/>
  <path fill="#567c50" d="M837.48,653.7c60.32-78.68,367.18-260.96,406.52-56.39,2.7,14.06,34.09,19.67,32.78-9.18-20.78-32.72-20.6-32.59-27.54-52.45-47.21-135.07-271.45-69.5-403.95,9.16,34.22-91.68,88.29-174.87,134.85-260.72-45.03,3.06-89.81,10.02-133.48,21.05-77.31,124.99-109.5,279.75-211.65,388.24-36.75-83.01-32.61-186.58-43.22-274.94-44.31,31.49-85.33,67.64-121.78,107.98,21.98,369.49,32.5,745.58,125.06,1105.58,103.74,71.16,225.75,113.9,350.77,125.68-168.52-307.51-397.73-805.96-108.37-1104ZM1256.43,565.58c4.62,8.9,9.58,17.5,15.92,25.39.5,10.28-17.86,12.9-23.16-1.87-3.32-27.28-17.3-55.44-40.27-71.64,7.3-9.04,8.28-17.75,1.77-27.14,22.94,17.83,37,48.11,45.74,75.26ZM844.17,552.08s0,0,0,0c.03.1,0,.09,0,0ZM612.43,673.44c4.34,13.67,9.25,28.54,22.12,36.96,102.92-98.51,134.14-247.51,201.16-369.47,9.52.39,18.75,2.8,27.98,5.11,15.67,1.75,31.59-.9,47.32-1.2-9.58-7.75-24.74-2.36-35.94-6.73-10.58-3.58-23.84-14.15-34.45-6.46,3.55-6.6,7.21-13.13,11.01-19.58,35.44-7.61,71.41-12.5,107.5-14.72-21.67,44.81-145.82,230.79-125.94,265.5,26.29-3.2,47.03-23.66,70.86-34.48,14.28,11.47,33.13,14.67,49.75,21.63-8.67-13.19-29.11-13.48-37.81-27.97,88.86-46.36,195.09-78.45,290.4-34.68-1.67,8.14-4.9,15.72-8.41,23.19-139.24-54.33-301.53,68.2-396.07,162.73-17.78-9.5-38.46-27.86-57.68-13.93-3.59,3.48-7.52,6.76-12.77,5.19-10.54-1.65-21.99-4.91-32.65-5.09-7.09-.13-11.73,4.42-3.93,8.23,8.8,4.29,23.46,3.33,33.12,4.49,21.62.87,40.91,10.55,61.37,15.87-55.63,68.82-84.33,152.17-94.51,241.45-24.35-2.87-52.46.84-73.67-7.52-41.56-16.32-81.23-47.95-118.51-6.06-9.04-105.15-15.67-210.51-19.51-315.96,15.8-9.08,33.31-13.88,50.71-18.9,20.57-9.05,38.83-22.61,57.61-35.07,4.71,42.79,9.09,85.8,20.96,127.46ZM582.42,438.76c2.41,33.25,4.99,66.52,8.29,99.76-15.73,4.42-30.36,17.9-46.53,20.41-23.14,3.47-57.28.37-61.39,30.63-.68-19.69-1.3-39.37-1.78-59.06,30.84-33.65,64.84-64.43,101.41-91.74ZM613.87,1617.8c-67.66-222.59-86.39-456.9-109.93-687.43,28.33,1.17,55.79,8.37,83.28,15.24,35.16,3.92,70.72.44,106.16-1.92-12.36,134.59,15.77,281.43,56.09,411.64-30.45-13.54-65.85-36.32-94.08-11.05-5.46,6.5-11.51,12.72-20.64,10.98-18.07-.94-37.94-4.44-55.95-2.9-11.99,1.02-19.01,9.51-5.19,14.57,15.59,5.71,40.14,1.54,56.63,1.81,44.33-3.21,85.07,17.99,128.97,17.04,41.26,124.28,92.33,235.9,153.79,349.69-106.95-15.97-210.03-56.51-299.13-117.66Z"/>
  <path fill="#567c50" d="M1749.31,946.49c-13.58-151.45-77.19-295.82-174.81-411.96,77.55,358.43-27.92,726.02-110,1074.74,109.96-84.83,174.83-172.97,222.62-272.2,6.33-68.78.16-137.55.03-206.39,18.22-61.57,40.81-121.38,61.92-182.04.28-.54.39-1.57.24-2.16ZM1600.65,593.98c73.65,99.17,120.98,217.55,136.31,340.17-29.36,6.27-61.05-29.79-86.58-6.3-8.46,15.01-34.19,2.64-48.5,9.44,10.02-114.27,11.84-229.23-1.23-343.31ZM1491.57,1565.48c31.67-139.79,62-280.12,84.42-421.73,33.31,7.79,66.64,1.37,100-3.54-2.33,61.85-.6,124.11-8.17,185.59-15.84-6-32.72-11.43-45.32,1.75-2.91,4.07-6.2,8.01-11.63,7.41-10.67.26-22.53-.88-33.05.84-6.99,1.16-10.74,6.46-2.39,8.82,9.43,2.63,23.69-.95,33.39-1.53,17.21-2,34.11.46,50.98,3.29-41.32,82.96-98.82,157.67-168.22,219.11ZM1676.15,1135.07c-16.93-5.04-38.09,2.41-55.22-2.78-12.51-3.18-27.46-11.49-41.23-12.59,8.9-58.28,16.19-116.78,21.54-175.57,9.99,4.12,24.93-.22,35.46-.76,19.7-2.29,39.01,1.26,58.31,4.52,14.43.48,28.82-1.13,43.18-3.17-3.01,15.48-51.71,140.97-62.04,190.34Z"/>
  <path fill="#567c50" d="M1467.12,505.71c-3.92-27.02-9.2-53.94-16.71-80.35-32.83-24.17-67.83-45.45-104.16-63.99,26.91,208.33,21.95,429.3-35.98,631.84-162.83-87.75-196.36-122.59-382.3-56.24-9.93,3.54-36.72,18.36-33.95,35.13,1.16,5.52,12.44,10.44,18.62,4.42,13.21-11.51,26.86-19.87,45.43-23.13,145.62-25.6,216.07-14.19,252.86,147.22,87.83,248.03-44.65,470.27-190.99,663.6,106.15-2.75,214.29-22.53,309.53-70.9,84.21-388,173.53-788.61,137.66-1187.6ZM1360.75,381.87c27.8,14.91,54.61,31.66,80.24,50.08,24.65,89.35,26.37,183.39,25.04,275.53-18.83-6.43-41.46-19.3-57.33-2.71-2.91,4.07-6.19,8-11.64,7.4-8.8.23-18.38-.49-27.38.21,5.71-110.12,5.38-221-8.94-330.5ZM1307.5,997.57s.03-.01.04-.02c-.1.13-.13.16-.04.02ZM1027.26,936.66c-40.43,6.37-86.98,4.48-118.15,35.11-4.15,4.33-7.95.18-10.68-3.44,3.47-38.81,179.99-62.03,213.95-57.26-5.92,7.86,3.47,15.12-4.28,22.06-27.14-2.17-53.98.79-80.84,3.53ZM1318.79,1644.58c-1.75,9.1-7.48,24.58-7.42,33.77-78.65,31.68-161.03,55.49-246.19,60.08,35.07-51.82,75.54-102.74,105.92-158.07,48.84,9.67,99.64-1.39,149.09-1.59-35.79-25.91-92.04-2.95-132.24-30.87,42.64-94.75,81.58-201.11,68.14-307.08,14.55,1.56,32.17-.88,44.97-.67,34.74-1.74,67.65,8.62,101.11,15.61-23.59,130.46-51.67,260.14-83.39,388.82ZM1433.97,1060.33c-7.73,53.74-16.32,107.36-25.65,160.85-27.47-13.04-57.5-27.5-82.11-5.48-5.46,6.5-11.51,12.72-20.64,10.98-16.64-.86-34.81-3.89-51.64-3.17-10.11-66.03-26.37-131.56-48.39-194.6,19.24-2.36,35.24-14.32,52.46-22.35-11.92-3.13-23.53,8.01-35.53,8.62-6.82.66-15.65-.65-22.95.86-18.87-34.95-48.06-68.62-86.03-82.02,3.35-6.94,8.07-12.92,13.09-18.61,65.29,24.91,126.53,67.21,187.03,102.29,41.71-27.05,49.73-238.75,55.5-294.93,9.97-.87,18.54-2.02,25.93-2.47,23.92-3.68,46.88,5.23,70.55,4.45-3.35,112.3-16.32,224.41-31.61,335.6Z"/>
</svg>