<svg xmlns="http://www.w3.org/2000/svg" viewBox="0 0 1440 492">
    <path d="M716.19 138.36c104.74 2.05 167.4-44.02 250.11-72.1-80.33 20.67-145.91 56.95-245.87 45.4C573.68 94.7 481.81 39.97 334.1 37.38 205.92 35.15 29.79 82.61-.66 91.11v94.64c35.18-13.46 200.83-74.75 325.52-84.5 147.16-11.51 243.76 34.22 391.34 37.11Z" style="fill:#e5eae4"/>
    <path d="M1439.79 88.36s-234.74-51.94-376.03-42.18c-141.3 9.76-205.97 94.95-347.57 92.18-147.58-2.89-244.17-48.62-391.34-37.11C200.17 111 34.52 172.29-.66 185.75v100.23l1.68 24.29V205.74s195.38-62.73 335-64c146.52-1.34 239.05 50.94 385 64 140.03 12.53 209.91-68 350.5-68s355.1 63.76 368.82 67.8V96.32l-.55-7.96Z" style="fill:#b4c3b2"/>
    <path d="M1440.34 205.54c-13.72-4.04-232.68-67.8-368.82-67.8s-210.47 80.53-350.5 68c-145.95-13.06-238.48-65.34-385-64-139.62 1.28-335 64-335 64v286h1439.32v-286.2Z" style="fill:#f7f9f7"/>
</svg>
