<svg xmlns="http://www.w3.org/2000/svg" viewBox="0 0 387.83 308.79">
    <path d="M143.01 278.94c-47.52-28.88-78.62-72.57-87.7-116.23-6.01-28.9-21.66-63.1-6.73-87.66 14.93-24.56 70.72-46.79 99.14-54.76C190.65 8.24 230 7.38 277.52 36.26c47.52 28.88 98.62 61.05 107.7 104.7 6.01 28.9-16.41 88.67-31.34 113.23-14.93 24.56-38.89 41.1-67.31 49.07-42.93 12.05-96.04 4.55-143.56-24.33Z" style="fill:#e5eae4"/>
    <path d="M311.2 60.42c23.56 38.24 23.09 85.28 3.13 126.44-13.21 27.25-21.28 61.76-50.25 79.61s-92.62 22.78-122.9 22.33c-45.74-.69-81.14-10.36-104.7-48.6-23.56-38.24-48.19-80.35-28.24-121.52C21.45 91.43 79.63 44.31 108.6 26.47 137.58 8.62 169.4.3 199.68.75c45.74.69 87.96 21.43 111.52 59.67Z" style="fill:#b4c3b2"/>
    <path d="m185.3 117.05-2.56 61.31h-18.56l-2.56-61.31h23.68Zm-11.52 94.08c-3.84 0-7-1.11-9.47-3.33-2.39-2.3-3.58-5.12-3.58-8.45s1.19-6.27 3.58-8.58c2.47-2.3 5.63-3.46 9.47-3.46s6.83 1.15 9.22 3.46c2.47 2.3 3.71 5.16 3.71 8.58s-1.24 6.14-3.71 8.45c-2.39 2.22-5.46 3.33-9.22 3.33Z" style="fill:#f7f9f7"/>
</svg>
