<svg xmlns="http://www.w3.org/2000/svg" viewBox="0 0 2080 621">
    <path d="M1532.55 505.99c.2-60.79-16.08-82.32 44.75-48.99 4.76 3.52 10.93 8.04 16.98 5.18 3.76-33.53-42.17-27.67-64.07-30.13-3.64-84.09-2.11-156.53-.8-240.52 15.9 2.79 29.09 11.99 42.02 20.94 23.84 6.76 4.46-32.76-28.73-29.6-4.46-.43-8.91-.85-13.37-1.27-.17-16.77-.25-50.96-.64-78.8 17.64 13.15 18.32-6.94 2.51-11.06-6.54-3.92-1.35-18.29-3.26-24.77-28.37-.12-54.65-.1-79.18.06.23 10.25.89 29.41 1.13 40.61-8.97 1.14-25.55-6.67-30.11 3.32 9.33 1.63 21.17-.9 30.28 4.88.42 23.16.04 31.43 1.14 67.26 1.52 47.26 1.75 60.02 3.42 107.56-65.43-3.25-44.04 7.88-46.28-59.87 7.53 1.53 13.9 5.88 20.67 9.13 17.91 1.42-3.44-22.3-20.31-17.35.34-9.16.5-19.97-.02-36.99-1.5-47.81-.73-70.42-3.04-118.08-30.69.47-58.61 1.23-84.7 2.33.09 7 .09 16.02.13 22.73-8.74 1.18-24.93-6.52-29.28 3.4 43.01-.59 26.19 10.96 29.69 41.81-18.47-9.74-40.81-8.49-61.36-10.33-.28-11.13-.88-33.1-.82-54.19-123.42 7-346.55 48.97-472.15 72.23-3.97-.77-9.21 1.42-13.43 1.61 5.08 2.06 8.65 8.69 14.56 7.89 5.56 68.66 1.52 160.8 4.64 225.17-17.74 4.23-58.17-7.25-62.23 16.29 2.01 3.9 15.74-.53 19.22-1.14 13.77-.31 48.1-9.25 44.83 11.76-.82 64.35-2.68 126.82 5.49 186.16-10.62.93-21.54.31-32.01 2.18-11.82 7.45-5.29 11.25 5.61 7.22 11.8-.96 31.11-5.78 27.24 11.9-13.24 15.5 458.9 2.38 458.62 6.51 1.92-64.94 8.9-132.98.26-192.68 22.22 1.67 40.52 14.89 60.82 21.77 1.79 16.98 2.03 75.75 2.25 97.56-12.96 3.04-42.88-6.01-46.61 10.39 14.24 1.55 31.95-4.85 46.81 1.78.26 12.44.56 36.98.59 61.17h97.21c-1.33-15.24-3.01-24.2-4.19-42.13 16.57 1.05 30.03 20.28 46.26 15.6 2.78-12.63-8.08-23.62-19.61-26.8-8.79-5.71-29.88 4.16-27.63-9.77-1.43-46.51.19-46.61-1.24-93.12-2.02-55.7-3.97-111.95-5.98-163.02 52.53 5.49 49.48 10.88 50.46 67.24 7.23 83.65 1.09 171.17 6.41 252 98.03.18 59.73 16.34 67.05-115.01Zm-229.53-93.09c-14.16-3.73-29.14-2.07-43.67-1.39-1.37-54.28 4.46-64.29 4.28-118.2-1-55.58-2.51-101.81-3.17-154.73 23.16 3.08 41.16 13.7 61.22 22.33.17 60.56.06 113.1-.85 172.47-16.8 2.93-49.7-9.04-54.86 13.33 1.82 3.99 15.74.21 19.24-.24 11.64-1.49 23.5-1.08 35.04 1.06-.8 13.38-1.42 51.19-.75 73.31-4.81-3.77-10.56-6.37-16.49-7.94ZM151.85 583.69c.26 17.01.66 28.05 1.09 37.31H0c.29-69.76-.21-394.42 0-457.12 34.67-23.74 85.08-46.93 141.48-59.56-5 24.11 24.47 6.63 39.04 13.89 16.14 3.2 32.18 17.25 29.6 34.86-20.35 8.4-44.67-18.09-68.06-17.31-.17 115.09 10.58 233.84 9.34 350.79.16 10.6.24 18.89.27 25.88 12.7.69 38.25-1.93 36.2 17.22-52.06-17.73-32.93-22.74-36.02 54.04ZM2080 143v478h-61.99c-.75-41-1.28-44.82-2.07-92.87-4.08-43.09 13.24-72.6-31.1-68.92-8.84 2.41-14.74-1.25-4.05-6.48 11.12-.49 22.46.85 33.61 1.41 1.41-108.83-2.01-220.46-3.22-327.33 22.31 5.1 45.18 10.5 68.81 16.2ZM447.12 598.93c.19 8.77.45 15.93.75 22.07h-56.65c5.53-30.07-10.51-33.69-36.55-40.83-.32 14.36-.23 32.05-.1 40.83H241.38c-4.68-48.97.64-86.4.18-137.09-.63-40.97-3.64-47.29-5.02-77.43-13.44-4.37-27.8-5.97-41.86-4.48-15.37 4.4-25.73-.91-7.32-10.98 11.96-4.49 45.88 6.91 48.61-4.09-.8-68.66-.98-121.47-1.14-188.44-11.55-4.28-23.92-6.39-36.24-6.05-3 .08-15.09 2.11-16.29-1.42 7.41-19.35 36.51-4.74 52.31-6.17-6.24-128.9-17.11-86.29 126.33-79.89-.17 10.79-.3 23.88-.4 31.58 13.18-5 34.84 15.21 18.24 14.95-6.03-2.58-11.72-6.19-18.32-7.34-1.53 81.3 4.64 168.23-3.76 252.11.1 57.41.82 115.14-1.73 167.88 12.31.76 24.86.19 36.91 3.2-1.39-54.37-.43-111.5.24-170.23 1.43-31.45 3.07-28.08-25.14-31.2 4.07-9.19 18.08-1.46 25.87-1.97 1.81-44.91 2.71-104.56 3.94-152.79-6.73-6.94-14.43-10.76-22.15-10.82-1.41-.01-7.14 1.4-7.65-1.68 2.11-15.9 20.35-3.09 29.95-2.52.12-37.22-2.16-42.62-1.51-86.23 14.51 2.29 28.86 4.81 43.74 7.59 1.31 48.05-2.88 50.93-1.85 98.85 2.45 53.97 4.59 111.64 7.73 160.68 15.4.77 34.69-2.33 45.62 11.02 5.17 5.94 5.99 19.03-5.12 14.22-12.51-7.26-25.27-14.73-40.05-16.14 1.13 76.67-2.17 136.04 1.62 212.81Zm1403.29-12.33c12.44 16.51-.7 25.38-15.67 12.78-14.64-9.03-31.67-14.12-48.85-14.79-.56 11.62-1.3 21.24-1.53 36.4h-158.23c-.81-77.01.43-135.99 1.04-213.02-.82-50.12-.47-91.11-2.07-138.94-27.04-10.41-46.02-.42-70.12 4.95-6.2-15.01 59.59-26.01 69.4-22.85-1.49-38.54-.45-83.55-.52-117.67-13.62-5.1-27.5-12.43-42.79-8.62-7.82 3.02-13.52.25-4.29-5.52 15.06-.29 34.22-6.59 47.02 3.58-.16-23.47-.39-41.95-.45-53.76 52.12 2.45 101.45 6.93 150.33 13.34-.49 21.36.96 67.15 1.29 81.81 26.48-10.91 55.57 18.43 32.25 19.01-10.5-3.13-20.74-7.69-31.94-7.88.42 24.83 1.95 88.3 4.08 107.43 23.3-8.08 45.89-20.85 70.69-23.14 18.48-6.29 62.57 28.1 27.07 32.78-32.32-5.41-66.13-7.28-96.87 6.57 5.52 124.56-16.14 60.8 45.73 92.39 13.51 27.98-28.1-9.53-44.99-3.36-.15 11.07-.21 23.88.19 45.1 1.11 55.25 6.91 85.87 5.13 140.58 21.32 1.19 48.3-5.24 64.1 12.83Zm-32.48-469.62c-.59-14.68 49.07-10.32 59.87-9.19 10.17-.11 25.15 23.49 7.72 20.22-26.14-15.62-40.57-12.29-67.59-11.03Zm192.79 460.78c16.75 31.41-24.19.83-36.28.98 8.38 63.16 2.22 37.16-56.45 42.26-.74-33.1-1.36-94.57-3.07-132.2-22.8-9.28-48.81-10.57-72.13-2.34-2.94 1.02-14.24 6.8-16.53 3.69-2.15-6.57 7.44-14.59 13.65-14.83 24.3-3.32 49.54-15.69 73.98-8.87-.41-123.42-9.63-237.94-6.45-361.82 19.93 3.91 40.14 8.11 60.76 12.59.29 16.23.55 27.05.82 36.35 20.78-4 39.7 21.94 21.84 19.19-6.99-4.06-13.58-9.09-21.6-11.14 3.2 53.18-.85 108.17-.45 165.01 15.05-1.39 43.9-4.92 43.39 17.22-14.17 2.81-27.64-12.05-43.2-9.74 1.12 39.21 3.72 43.59 4.5 90.88.68 54.13-4.84 90.99-.03 143.69 12.75-.29 28.12-1.55 37.25 9.08Zm-391.29 13.44c19.44 38.81-34.53-11.66-65.78-1.78-2.51.29-12.5 2.9-13.77.03 5.15-17.12 31.51-6.54 45.11-9.11 12.11 0 26.32.63 34.44 10.85ZM225.95 564.68c13.74 29.63-28.24-10.63-49.21-3.66-1.89.13-9.46 1.73-10.32-.46-.53-12.44 56.38-5.85 59.52 4.13Zm-58.09-290.3c15.49-3.58 34.84-14.71 49.48-3.78 3.96 3.11 10.26 14.14.53 12.67-14.12-5.86-30.47-9.18-43.77-2.81-8.26 5.93-12.94 1.55-6.24-6.08Zm587.27 303.1c-20.85-14.06-44.94-21.67-69.13-22.14.59 18.29 1 32.27 1.83 65.66H544.46c.39-14.61-.6-45.92-.62-58.79-20.83-6.79-43.17-8.97-64.89-6.09-4.52.6-22.45 5.57-24.82.43 3.79-28.87 59.73-13.82 81.06-17.61 16.03 3.58 5.67-20.88 7.91-39.7-6.18-76.56-8.62-136.09-8.64-212.9-19.38-1.64-37.87 4.41-56.56 7.97-36.23-.96 5.28-50.7 56.88-27.67 1.74-23.55-.29-92.89-1.87-115.15-12.68-3.65-25.97-5.13-39.13-4.2-17.51 4.37-28.65-2.1-7.76-12.56 15.31-1.25 30.93 1.46 46.32 1.72 0-.18-.01-.35-.02-.54 161.14 41.08 140.58-23.95 144.11 95.18 20.8-4.77 41.33-13.92 62.85-13.99 14.87-3.51 44.63 26.08 18 27.09-26.11-7.45-54.12-10.96-80.14-.73 6.28 94.35 2.11 197.35 8.38 294.53 22.99.31 46.84-4.13 69.2 2.73 31.29 6.07 45.69 69.79.41 36.76Z" style="fill:#e5eae4"/>
</svg>
