<svg xmlns="http://www.w3.org/2000/svg" viewBox="0 0 426 290.5">
    <path d="M58.95 229.79C35.73 198.3-6.42 151.26.96 116.2 7.13 86.9 50.88 27.27 76.62 8.29c25.74-18.98 71.96 10.78 101.77 13.55 35.68 3.31 68.72 20.58 91.94 52.07 23.22 31.49 5.71 88.65-1.67 123.71-6.17 29.3-44.55 32.85-70.29 51.83-25.74 18.98-45.92 34.51-75.73 31.74-35.68-3.31-40.47-19.92-63.69-51.4Z" style="fill:#e5eae4"/>
    <path d="M263.74 129.23c0 37.31 5.85 97.27-20.23 120-21.79 18.99-90.6 40-121.77 40s-50.21-49.01-72-68c-26.07-22.73-42-54.69-42-92s46.8-71.27 72.87-94c21.79-19 53.95 0 85.13 0s55.99-.5 77.77 18.5c26.07 22.73 20.23 38.19 20.23 75.5Zm111.59 109.12c2.36-7.12 5.03-18.94 11.49-21.61 5.4-2.23 19.99-1.85 26 .14 6.01 1.99 6.58 12.56 9.58 17.58 3.59 6 4.64 13.12 2.27 20.24-2.36 7.12-13.53 10.61-19.99 13.29-5.4 2.23-10.4-3.45-16.41-5.44-6.01-1.99-10.82-3.48-13.82-8.5-3.59-6-1.48-8.58.88-15.7Zm-71.61 38.3c-9.07-5.84-24.57-13.78-25.97-23.74-1.17-8.32 4.59-28.49 9.52-36.15 4.93-7.65 19.85-4.66 27.9-7.03 9.64-2.84 19.93-1.75 29 4.09s9.93 22.64 11.33 32.59c1.17 8.32-8.52 13.24-13.45 20.89s-8.73 13.82-16.79 16.19c-9.65 2.84-12.48-1.01-21.55-6.85Z" style="fill:#b4c3b2"/>
    <path d="M146.92 107.94c9.13 0 16.43 2.39 21.89 7.17 5.55 4.78 8.32 11.52 8.32 20.22 0 8.02-2.65 14.29-7.94 18.82-5.21 4.44-12.12 6.7-20.74 6.78l-.64 9.6h-19.2l-.64-23.81h7.68c6.57 0 11.56-.81 14.98-2.43 3.5-1.62 5.25-4.57 5.25-8.83 0-2.99-.81-5.33-2.43-7.04s-3.88-2.56-6.78-2.56c-3.07 0-5.46.9-7.17 2.69-1.71 1.71-2.56 4.05-2.56 7.04h-20.61c-.17-5.2.9-9.9 3.2-14.08 2.39-4.18 5.89-7.47 10.5-9.86 4.69-2.47 10.32-3.71 16.9-3.71Zm-8.45 95.87c-3.84 0-7-1.11-9.47-3.33-2.39-2.3-3.58-5.12-3.58-8.45s1.2-6.27 3.58-8.58c2.48-2.3 5.63-3.46 9.47-3.46s6.83 1.15 9.22 3.46c2.48 2.3 3.71 5.16 3.71 8.58s-1.24 6.14-3.71 8.45c-2.39 2.22-5.46 3.33-9.22 3.33Z" style="fill:#f7f9f7"/>
</svg>
