<svg xmlns="http://www.w3.org/2000/svg" width="104" height="28">
  <path fill-rule="evenodd" d="M31.464 8.05c-.749-1.006-5.288-.088-7.535.744-.573.175-1.058.525-.661 1.444.44.83.925 1.793.925 2.406 0 3.762-1.234 7.262-2.247 10.062-.75 1.925-1.454 3.982-.926 4.506.441.438 1.102.175 6.39-.087.529 0 .75-.131.837-.831 1.014-6.431 3.261-13.431 5.2-13.431.573.043.838.743.97.962 1.102 3.325 6.963-1.225 5.817-4.55-1.146-3.238-4.583-2.844-8.726 2.975.441-2.844.353-3.762-.044-4.2Zm72.272 7.875c.396-8.706-8.858-11.2-16.526-6.038-2.688 1.925-4.627 5.994-4.627 9.363-.397 2.012-2.291 3.325-5.376 4.463-4.23 1.837-8.065-.657-8.461-5.994-.088-1.794.749-3.981 1.939-5.731 1.542-2.494 5.773-3.588 4.98-.92-.265.92-.882 1.576-.838 2.844 0 1.75 3.526 1.838 4.671.132 3.085-3.894-1.542-7.088-7.667-6.519-6.17.525-11.15 5.119-11.15 11.287 0 3.763-7.315 6.694-11.149 4.42-1.146-.57-2.291-2.144-1.939-3.632.088-.438.353-.525.75-.612 3.833-.657 5.376-1.138 7.315-2.67 3.084-2.58 3.834-6.474.396-8.312C54.38 7.131 48.74 6.387 43.76 9.67c0 .131-4.98 3.281-4.98 9.187 0 3.938 1.896 6.519 4.98 7.831 1.94.744 4.23 1.094 6.919.744 3.437-.306 7.315-2.45 9.21-3.893 1.146-.744 1.543-.438 1.94 0 6.521 7.743 15.775 2.8 19.61-.132 1.145-.743 1.542-.087 1.938.394 1.543 2.275 3.834 3.675 8.461 3.762 6.126.22 11.502-4.9 11.899-11.637ZM47.24 17.019c-1.543-1.619 3.084-8.444 5.773-7.744 1.542.306 1.939 1.487 1.145 3.237-.793 2.275-5.773 5.513-6.918 4.507Zm53.013.744c-1.542 7.306-10.356 8.924-11.149 1.88-.397-5.95 5.376-12.074 10.003-8.924 1.543 1.137 1.94 4.068 1.146 7.044ZM18.244 4.813c-2.732-4.638-8.813-6.17-13.397-3.5C-4.67 6.78.881 21.043 12.824 22.488c0 0 1.278.13 1.807.13.44 0 .66-.393.176-.524-1.63-.525-2.556-1.4-3.085-2.8 6.698-1.575 9.871-8.707 6.522-14.482"/>
  <path fill="#3096d0" fill-rule="evenodd" d="M18.112 8.881c-.44-4.025-3.746-7.175-7.8-7.437V8.88h7.8Z"/>
  <path fill="#c3da4a" fill-rule="evenodd" d="M10.312 18.069a8.331 8.331 0 0 0 7.844-8.182h-7.844v8.182Z"/>
  <path fill="#ed2281" fill-rule="evenodd" d="M1.454 9.887c.044 4.375 3.526 7.92 7.844 8.182V9.887H1.454Z"/>
  <path fill="#f9c63c" fill-rule="evenodd" d="M9.298 1.444c-4.098.262-7.403 3.369-7.8 7.437h7.8V1.444Z"/>
</svg>
