<svg xmlns="http://www.w3.org/2000/svg" viewBox="0 0 800 800">
    <path d="M575.39 420.98c.32-.44.63-.89.93-1.35.04-.07.09-.14.13-.21.26-.4.51-.81.76-1.23.08-.13.15-.27.23-.4.2-.34.39-.69.57-1.04.11-.21.21-.42.32-.63.14-.28.28-.56.41-.84.13-.28.26-.56.38-.85.09-.21.19-.43.27-.64.14-.34.28-.69.41-1.04l.18-.48c.14-.4.27-.79.4-1.19.04-.12.08-.24.11-.37.13-.43.25-.86.37-1.29.03-.1.05-.21.08-.31.11-.44.22-.89.31-1.33.02-.1.04-.21.07-.31.09-.44.17-.88.24-1.31l.06-.37c.06-.41.12-.83.17-1.24.02-.16.04-.32.05-.48.04-.38.07-.75.1-1.13.01-.21.03-.42.04-.63.02-.33.03-.65.04-.98v-1.59c0-.32-.02-.64-.03-.96-.01-.21-.02-.43-.04-.64-.02-.37-.06-.74-.09-1.11-.02-.16-.03-.33-.05-.49-.05-.41-.1-.82-.16-1.23-.02-.13-.04-.26-.06-.38-.07-.44-.15-.87-.24-1.3-.02-.11-.04-.22-.07-.33-.09-.44-.19-.88-.3-1.32-.03-.11-.05-.21-.08-.32-.11-.43-.23-.86-.36-1.28-.04-.13-.08-.25-.12-.38-.12-.4-.26-.79-.39-1.18-.06-.17-.12-.33-.18-.49-.13-.34-.26-.69-.4-1.03-.09-.22-.18-.44-.28-.66-.12-.28-.24-.56-.37-.84-.13-.29-.27-.57-.41-.85-.1-.21-.2-.41-.31-.62-.19-.36-.38-.71-.58-1.06-.07-.13-.15-.26-.22-.39-.24-.42-.5-.83-.76-1.25-.04-.06-.08-.13-.12-.19-.3-.46-.62-.92-.94-1.37-.01-.02-.03-.04-.04-.06-.34-.47-.69-.93-1.05-1.38 0-.01-.02-.02-.03-.03l-.01-.01c-.33-.41-.67-.81-1.02-1.2l-.19-.22c-.27-.3-.54-.59-.82-.87-.16-.17-.32-.34-.48-.5-.17-.17-.35-.34-.53-.51-.28-.27-.55-.53-.84-.79l-.25-.22c-.38-.34-.77-.67-1.16-.99 0 0-.02-.01-.02-.02l-294-237c-15.05-12.13-37.08-9.77-49.21 5.28-12.13 15.05-9.77 37.08 5.28 49.21l260.13 209.69-260.07 208.76c-15.07 12.1-17.48 34.13-5.38 49.2 6.91 8.61 17.07 13.09 27.32 13.09 7.69 0 15.43-2.52 21.89-7.71L568.5 428.18l.3-.24.18-.15c.09-.07.17-.14.25-.21.36-.3.72-.59 1.07-.91.23-.2.44-.41.67-.62.22-.21.44-.4.66-.62.96-.94 1.85-1.93 2.68-2.96l.02-.02c.02-.02.03-.04.04-.06.36-.44.7-.89 1.03-1.35.02-.03.04-.06.06-.08Z" style="fill:#052900"/>
</svg>
