<svg xmlns="http://www.w3.org/2000/svg" viewBox="0 0 800 800">
    <path d="M453.77 400.01 781.88 80.58c14.84-14.45 15.16-38.19.71-53.03-14.45-14.84-38.19-15.16-53.03-.71L400.02 347.68 70.47 26.84c-14.84-14.45-38.58-14.13-53.03.71-14.45 14.84-14.13 38.58.71 53.03l328.1 319.44-328.1 319.43c-14.84 14.45-15.16 38.19-.71 53.03 7.35 7.55 17.11 11.34 26.87 11.34s18.87-3.53 26.16-10.63l329.54-320.84 329.54 320.84c7.29 7.1 16.73 10.63 26.16 10.63s19.52-3.79 26.87-11.34c14.45-14.84 14.13-38.58-.71-53.03l-328.1-319.44Z" style="fill:#567c50"/>
</svg>
