<svg xmlns="http://www.w3.org/2000/svg" viewBox="0 0 800 800">
  <path fill="#567c50" d="M74,801c-20.26.43-37.48-18.77-34.78-38.88,0,0,60-538,60-538,1.98-17.74,16.93-31.12,34.78-31.12,0,0,94.11,0,94.11,0C240.27,92.9,285.66-3.26,395.5-1c110.02-2.47,156.6,94.05,169.82,194h99.18c17.85,0,32.81,13.38,34.78,31.12l60,538c1.1,9.88-2.07,19.8-8.7,27.22-6.63,7.41-16.14,11.66-26.08,11.66H74ZM685.38,731l-52.19-468h-59.53c2.03,22.66,3.89,48.74,5.78,80.95,1.25,20-14.95,37.13-34.98,37.06-18.49,0-33.82-14.47-34.9-32.95-1.53-26.12-3.45-56.24-6.18-85.05h-212.73c-2.39,28.98-3.91,58.64-5.18,86.6-.83,19.29-17.29,34.29-36.56,33.37-18.82-.47-34.62-17.78-33.37-36.56,1.16-25.39,2.64-54.7,4.9-83.4h-55.12l-52.19,468h572.26ZM494.25,193c-10.09-60.78-32.71-127.88-98.75-124-65.48-3.97-87.32,63.7-96.57,124h195.33Z"/>
</svg>