<svg xmlns="http://www.w3.org/2000/svg" viewBox="0 0 800 800">
    <path d="M764 481.19h-46.31c-6.44-38.75-40.2-68.38-80.75-68.38s-74.3 29.63-80.74 68.38H36c-10.36 0-18.75 8.39-18.75 18.75s8.39 18.75 18.75 18.75h522.68c10.27 33.46 41.47 57.86 78.26 57.86s68-24.4 78.27-57.86H764c10.36 0 18.75-8.4 18.75-18.75s-8.39-18.75-18.75-18.75Zm-127.06 57.86c-15.62 0-29.38-8.12-37.28-20.36a44.049 44.049 0 0 1-7.08-24.01c0-4.7.74-9.24 2.1-13.49 5.72-17.89 22.5-30.88 42.26-30.88s36.55 12.99 42.27 30.88c1.37 4.25 2.1 8.79 2.1 13.49 0 8.84-2.6 17.09-7.08 24.01-7.9 12.24-21.66 20.36-37.29 20.36ZM36 329.33h59.81c10.27 33.46 41.47 57.86 78.27 57.86s67.99-24.4 78.26-57.86H764c10.36 0 18.75-8.39 18.75-18.75s-8.39-18.75-18.75-18.75H254.82c-6.44-38.75-40.2-68.38-80.74-68.38s-74.31 29.63-80.75 68.38H36c-10.36 0-18.75 8.4-18.75 18.75s8.39 18.75 18.75 18.75Zm138.08-68.38c19.76 0 36.54 12.99 42.26 30.88 1.36 4.26 2.1 8.79 2.1 13.49 0 8.84-2.6 17.09-7.07 24.01-7.91 12.24-21.67 20.36-37.29 20.36s-29.39-8.12-37.3-20.36a44.125 44.125 0 0 1-7.07-24.01c0-4.7.73-9.23 2.1-13.49 5.72-17.89 22.5-30.88 42.27-30.88Z" style="fill:#052900"/>
</svg>
