<svg xmlns="http://www.w3.org/2000/svg" viewBox="0 0 800 800">
    <path d="M786.08 734.89 565.9 514.71c43.62-55.3 67.29-123.17 67.29-194.69 0-84.17-32.78-163.31-92.3-222.83S402.24 4.9 318.07 4.9 154.76 37.68 95.24 97.2 2.94 235.85 2.94 320.02s32.78 163.31 92.3 222.83 138.66 92.3 222.83 92.3c71.57 0 139.49-23.71 194.81-67.39l220.17 220.17c7.32 7.32 16.92 10.98 26.52 10.98s19.19-3.66 26.52-10.98c14.64-14.64 14.64-38.39 0-53.03ZM77.94 320.02c0-132.41 107.72-240.13 240.13-240.13S558.2 187.61 558.2 320.02 450.48 560.15 318.07 560.15 77.94 452.43 77.94 320.02Z" style="fill:#567c50"/>
</svg>
