<svg xmlns="http://www.w3.org/2000/svg" viewBox="0 0 800 800">
    <path d="M700 50H500c0-27.6-22.4-50-50-50H350c-27.6 0-50 22.4-50 50H100c-27.6 0-50 22.4-50 50v62.5c0 6.9 5.6 12.5 12.5 12.5h675c6.9 0 12.5-5.6 12.5-12.5V100c0-27.6-22.4-50-50-50ZM250 300c-6.9 0-12.5 5.6-12.5 12.5v325c0 6.9 5.6 12.5 12.5 12.5s12.5-5.6 12.5-12.5v-325c0-6.9-5.6-12.5-12.5-12.5Zm150 0c-6.9 0-12.5 5.6-12.5 12.5v325c0 6.9 5.6 12.5 12.5 12.5s12.5-5.6 12.5-12.5v-325c0-6.9-5.6-12.5-12.5-12.5Zm150 0c-6.9 0-12.5 5.6-12.5 12.5v325c0 6.9 5.6 12.5 12.5 12.5s12.5-5.6 12.5-12.5v-325c0-6.9-5.6-12.5-12.5-12.5ZM112.5 200h-20c-2.8 0-5 2.2-5 5v545c0 27.6 22.4 50 50 50h525c27.6 0 50-22.4 50-50V205c0-2.8-2.2-5-5-5h-595Zm175 437.5c0 20.7-16.8 37.5-37.5 37.5s-37.5-16.8-37.5-37.5v-325c0-20.7 16.8-37.5 37.5-37.5s37.5 16.8 37.5 37.5v325Zm150 0c0 20.7-16.8 37.5-37.5 37.5s-37.5-16.8-37.5-37.5v-325c0-20.7 16.8-37.5 37.5-37.5s37.5 16.8 37.5 37.5v325Zm150 0c0 20.7-16.8 37.5-37.5 37.5s-37.5-16.8-37.5-37.5v-325c0-20.7 16.8-37.5 37.5-37.5s37.5 16.8 37.5 37.5v325Z" style="fill:#052900"/>
</svg>
