<svg xmlns="http://www.w3.org/2000/svg" viewBox="0 0 444.83 145.12">

    <path fill="#3f3e3e" d="m28.73 28.45-5.45-2.22c-4.34-1.75-6.14-3.44-6.14-5.98 0-2.8 2.01-4.61 5.5-4.61 4.13 0 6.35 2.33 6.35 6.41h6.09c0-6.99-4.87-11.59-12.23-11.59s-11.86 4.13-11.86 10.16c0 4.71 2.44 8.05 7.09 9.84l6.03 2.43c4.18 1.69 5.51 3.12 5.51 5.93 0 3.33-2.22 5.19-6.25 5.19-4.6 0-7.36-2.91-7.36-7.73H9.92c0 8.31 4.92 13.02 13.5 13.02 7.36 0 12.28-4.29 12.28-10.64 0-5.03-2.33-8.31-6.99-10.22M121.27 10c-8.31 0-13.76 4.55-13.76 13.18v24.77h6.09v-24.4c0-5.35 3.02-8.1 7.67-8.1s7.67 2.75 7.67 8.1v24.4h6.09V23.18c0-8.63-5.45-13.18-13.76-13.18M221.77 11.12l-7.88 15.93-9.95-15.93h-7.05l13.87 22.18-7.35 14.87h6.21l18.36-37.05h-6.21zM148.09 11.12H142v37.05h20.96v-5.71h-14.87V11.12zM224.82 48.17h3.34l18.37-37.05h-3.34l-18.37 37.05zM328.01 10.24c-10.42 0-17.91 8.64-17.91 19.42s7.27 19.4 18.25 19.4c6.85 0 12.8-4.26 15.75-10.5l-.13-.06-5.52-2.34c-4.71 11.25-20.24 8.86-21.76-3.11h28.72V27.6c0-9.6-7.79-17.37-17.39-17.37m-11.4 17.02c1.32-15.34 21.51-15.33 22.79 0h-22.79ZM180.67 10.02c-10.42 0-17.91 8.64-17.91 19.42s7.27 19.4 18.25 19.4c6.85 0 12.8-4.26 15.75-10.5l-.13-.06-5.52-2.34c-4.71 11.25-20.24 8.86-21.76-3.11h28.72v-5.45c0-9.6-7.79-17.37-17.39-17.37m-11.4 17.02c1.32-15.34 21.51-15.33 22.79 0h-22.79ZM357.79 11.12h-6.09v37.05h20.96v-5.71h-14.87V11.12zM384.43 11.12h-6.09v37.05h20.96v-5.71h-14.87V11.12zM271.22 28.22 265.77 26c-4.34-1.75-6.14-3.44-6.14-5.98 0-2.8 2.01-4.61 5.5-4.61 4.13 0 6.35 2.33 6.35 6.41h6.09c0-6.99-4.87-11.59-12.23-11.59s-11.86 4.13-11.86 10.16c0 4.71 2.44 8.04 7.09 9.84l6.03 2.43c4.18 1.69 5.51 3.12 5.51 5.93 0 3.33-2.22 5.19-6.25 5.19-4.61 0-7.36-2.91-7.36-7.73h-6.09c0 8.31 4.92 13.02 13.5 13.02 7.36 0 12.28-4.29 12.28-10.64 0-5.03-2.33-8.31-6.99-10.22M417.74 10.24c-7.04 0-13.08 4.28-15.65 10.38l5.36 2.1.25-.53c1.68-3.87 5.55-6.58 10.04-6.58 5.31 0 9.73 3.78 10.73 8.79s.09.68.09.68h-12.82c-19.5-.37-17.84 23.96-.03 23.98 5.88 0 10.09-3.05 12.97-6.54v5.64h6.04V27.23c0-9.38-7.6-16.99-16.99-16.99m-2.02 33.44c-3.75 0-8.13-2.27-8.13-7.3 0-1.64.8-5.79 8.15-5.79h12.94c0 2.51-4.52 13.09-12.97 13.09M84.31 10.24c-7.04 0-13.08 4.28-15.65 10.38l5.36 2.1.25-.53c1.69-3.87 5.55-6.58 10.04-6.58 5.31 0 9.73 3.78 10.73 8.79s.09.68.09.68H82.31c-19.5-.37-17.84 23.96-.03 23.98 5.88 0 10.09-3.05 12.97-6.54v5.64h6.04V27.23c0-9.38-7.6-16.99-16.99-16.99m-2.02 33.44c-3.75 0-8.13-2.27-8.13-7.3 0-1.64.8-5.79 8.15-5.79h12.94c0 2.51-4.52 13.08-12.97 13.08M55.05 11.12H40.61v5.72h11.6L36.68 48.17h6.67l15.53-31.33h9.36v-5.72H55.05zM311.05 11.12h-27.63v5.72h11.61l-15.54 31.33h6.67l15.54-31.33h9.35v-5.72zM9.94 75.43h424.78v3H9.94zM15.1 126.03c.9 1.82 2.17 3.26 3.79 4.29 1.62 1.04 3.48 1.55 5.58 1.55s3.97-.52 5.58-1.55c1.62-1.04 2.88-2.47 3.79-4.29.9-1.83 1.36-3.91 1.36-6.24s-.45-4.42-1.36-6.24c-.9-1.83-2.17-3.26-3.79-4.29-1.62-1.04-3.48-1.55-5.58-1.55s-3.96.52-5.58 1.55c-1.62 1.04-2.88 2.47-3.79 4.29-.9 1.82-1.36 3.91-1.36 6.24s.45 4.42 1.36 6.24m22.14 1.78c-1.24 2.37-2.97 4.22-5.19 5.56-2.22 1.34-4.75 2.02-7.58 2.02s-5.36-.67-7.58-2.02c-2.22-1.34-3.95-3.2-5.19-5.56-1.24-2.37-1.86-5.04-1.86-8.01s.62-5.65 1.86-8.02c1.24-2.37 2.97-4.22 5.19-5.56 2.22-1.34 4.75-2.01 7.58-2.01s5.36.67 7.58 2.01c2.22 1.34 3.95 3.2 5.19 5.56 1.24 2.36 1.86 5.04 1.86 8.02s-.62 5.65-1.86 8.01M50.11 104.46h19.05v3.5H53.92v10.26h12.61v3.5H53.92v13.4h-3.81v-30.66zM79.43 104.46h19.05v3.5H83.24v10.26h12.61v3.5H83.24v13.4h-3.81v-30.66zM108.75 104.46h3.81v30.66h-3.81zM125.36 111.65c1.2-2.37 2.91-4.2 5.13-5.5 2.22-1.3 4.79-1.95 7.71-1.95 3.39 0 6.23.92 8.52 2.76 2.29 1.84 3.73 4.35 4.32 7.54h-3.81c-.56-2.13-1.64-3.8-3.26-4.99-1.62-1.2-3.6-1.8-5.94-1.8-2.1 0-3.96.51-5.56 1.53-1.61 1.02-2.84 2.45-3.7 4.27-.86 1.82-1.29 3.92-1.29 6.29s.43 4.42 1.29 6.26c.86 1.84 2.1 3.27 3.7 4.29 1.61 1.02 3.46 1.53 5.56 1.53 2.37 0 4.34-.59 5.91-1.77 1.58-1.18 2.66-2.85 3.24-5.01h3.81c-.58 3.18-2.01 5.69-4.27 7.53-2.26 1.84-5.1 2.76-8.52 2.76-2.92 0-5.49-.65-7.71-1.95-2.22-1.3-3.93-3.13-5.13-5.47-1.2-2.35-1.8-5.07-1.8-8.17s.6-5.78 1.8-8.15M161.99 104.46h3.81v30.66h-3.81zM183.78 123.38h11.08l-5.56-14.76-5.52 14.76Zm-8.32 11.74 11.7-30.66h4.51l11.65 30.66h-4.07l-3.24-8.28h-13.36l-3.24 8.28h-3.94ZM212.96 135.12v-30.66h3.82v27.16h13.97v3.5h-17.79zM261.87 131.62c3.65 0 6.48-1.07 8.5-3.2 2.01-2.13 3.02-5.01 3.02-8.63s-1-6.53-3-8.65-4.84-3.18-8.52-3.18h-5.26v23.65h5.26Zm-9.06-27.16h9.07c3.15 0 5.89.64 8.21 1.91 2.32 1.27 4.1 3.06 5.34 5.37 1.24 2.31 1.86 4.99 1.86 8.06s-.62 5.72-1.86 8.04-3.02 4.12-5.34 5.39c-2.32 1.27-5.06 1.91-8.21 1.91h-9.07v-30.66ZM288.3 104.46h19.54v3.5h-15.73v9.82h13.1v3.5h-13.1v10.34h16.3v3.5H288.3v-30.66zM324.71 123.38h11.08l-5.56-14.76-5.52 14.76Zm-8.32 11.74 11.7-30.66h4.51l11.65 30.66h-4.07l-3.24-8.28h-13.36l-3.24 8.28h-3.94ZM353.9 135.12v-30.66h3.81v27.16h13.98v3.5H353.9zM381.95 104.46h19.54v3.5h-15.73v9.82h13.1v3.5h-13.1v10.34h16.3v3.5h-20.11v-30.66zM416.35 119.84h7.62c2.01 0 3.62-.54 4.82-1.62 1.2-1.08 1.8-2.53 1.8-4.34s-.6-3.21-1.8-4.29c-1.2-1.08-2.79-1.62-4.78-1.62h-7.66v11.87Zm7.93-15.38c2.01 0 3.8.39 5.34 1.16 1.55.77 2.74 1.87 3.59 3.29.85 1.42 1.27 3.07 1.27 4.97 0 2.13-.59 3.98-1.77 5.54-1.18 1.56-2.77 2.62-4.75 3.18l6.88 12.53h-4.29l-6.35-11.78h-7.84v11.78h-3.81v-30.66h11.74Z"/>
</svg>
